<svg width="45" height="45" viewBox="0 0 45 45" fill="none" xmlns="http://www.w3.org/2000/svg">
<rect width="45" height="45" rx="5" fill="#1D1D20"/>
<g clip-path="url(#clip0_2153:1606)">
<path d="M22.5 13.125C17.3304 13.125 13.125 17.3304 13.125 22.5C13.125 27.6696 17.3304 31.875 22.5 31.875C27.6696 31.875 31.875 27.6696 31.875 22.5C31.875 17.3304 27.6696 13.125 22.5 13.125ZM26.9586 27.3491C26.8063 27.5015 26.6063 27.5782 26.4063 27.5782C26.2063 27.5782 26.0062 27.5015 25.854 27.3491L21.9477 23.443C21.8008 23.2969 21.7188 23.0984 21.7188 22.8907V17.8125C21.7188 17.3805 22.0687 17.0313 22.5 17.0313C22.9313 17.0313 23.2812 17.3805 23.2812 17.8125V22.5672L26.9586 26.2445C27.264 26.5501 27.264 27.0437 26.9586 27.3491Z" fill="#FEFEFE"/>
</g>
<defs>
<clipPath id="clip0_2153:1606">
<rect width="18.75" height="18.75" fill="white" transform="translate(13.125 13.125)"/>
</clipPath>
</defs>
</svg>
