<svg width="32" height="32" viewBox="0 0 32 32" fill="none" xmlns="http://www.w3.org/2000/svg">
<rect width="32" height="32" rx="3" fill="#1D1D20"/>
<g clip-path="url(#clip0_2153:1596)">
<path d="M22.3682 14.5104C22.2844 14.2512 22.0545 14.0671 21.7825 14.0426L18.0881 13.7071L16.6272 10.2878C16.5195 10.0372 16.2742 9.875 16.0016 9.875C15.7291 9.875 15.4837 10.0372 15.376 10.2884L13.9151 13.7071L10.2201 14.0426C9.94864 14.0677 9.71934 14.2512 9.63506 14.5104C9.55078 14.7696 9.62861 15.0538 9.83399 15.233L12.6265 17.6821L11.8031 21.3095C11.7428 21.5762 11.8463 21.8519 12.0676 22.0118C12.1866 22.0978 12.3258 22.1415 12.4661 22.1415C12.5871 22.1415 12.7071 22.1089 12.8148 22.0445L16.0016 20.1398L19.1873 22.0445C19.4204 22.1847 19.7142 22.1719 19.935 22.0118C20.1564 21.8514 20.2598 21.5756 20.1996 21.3095L19.3761 17.6821L22.1687 15.2335C22.3741 15.0538 22.4525 14.77 22.3682 14.5104Z" fill="#FEFEFE"/>
</g>
<defs>
<clipPath id="clip0_2153:1596">
<rect width="12.8" height="12.8" fill="white" transform="translate(9.60156 9.60156)"/>
</clipPath>
</defs>
</svg>
