<svg width="45" height="45" viewBox="0 0 45 45" fill="none" xmlns="http://www.w3.org/2000/svg">
<rect width="45" height="45" rx="5" fill="#1D1D20"/>
<path d="M30.9557 20.4241C30.8444 20.0649 30.539 19.8098 30.1778 19.7758L25.2712 19.3109L23.3309 14.5721C23.1879 14.2248 22.8621 14 22.5001 14C22.1381 14 21.8123 14.2248 21.6692 14.5729L19.729 19.3109L14.8215 19.7758C14.461 19.8106 14.1564 20.0649 14.0445 20.4241C13.9326 20.7833 14.0359 21.1773 14.3087 21.4256L18.0175 24.8198L16.9239 29.8469C16.8439 30.2165 16.9813 30.5986 17.2753 30.8203C17.4332 30.9394 17.6181 31 17.8044 31C17.9651 31 18.1245 30.9548 18.2676 30.8655L22.5001 28.2259L26.731 30.8655C27.0406 31.0598 27.4308 31.0421 27.7241 30.8203C28.0181 30.5979 28.1555 30.2157 28.0755 29.8469L26.9818 24.8198L30.6907 21.4263C30.9634 21.1773 31.0676 20.784 30.9557 20.4241Z" fill="#FEFEFE"/>
</svg>
