<svg width="45" height="45" viewBox="0 0 45 45" fill="none" xmlns="http://www.w3.org/2000/svg">
<rect width="45" height="45" rx="5" fill="#1D1D20"/>
<g clip-path="url(#clip0_2153:1623)">
<path d="M33.3102 18.5484L22.7193 13.7127C22.5774 13.6479 22.4226 13.6479 22.2807 13.7127L11.6899 18.5484C11.4266 18.6687 11.2504 18.9905 11.25 19.3519C11.2496 19.7133 11.4253 20.0357 11.6884 20.1567L22.2792 25.0292C22.3506 25.062 22.4253 25.0785 22.5 25.0785C22.5747 25.0785 22.6494 25.062 22.7208 25.0292L33.3116 20.1567C33.5747 20.0357 33.7503 19.7133 33.75 19.3519C33.7496 18.9905 33.5734 18.6687 33.3102 18.5484Z" fill="#FEFEFE"/>
<path d="M32.1666 29.9351V22.4941L30.8483 23.1007V29.9351C30.4512 30.2308 30.1836 30.7851 30.1836 31.4206C30.1836 32.056 30.4512 32.6103 30.8483 32.9061C31.2505 33.0875 30.3861 31.4206 31.2505 31.764C31.2505 31.764 31.8755 33.0875 32.1666 32.9061C32.5637 32.6104 32.8313 32.0561 32.8313 31.4206C32.8313 30.7851 32.5638 30.2308 32.1666 29.9351Z" fill="#FEFEFE"/>
<path d="M22.501 26.7855C22.2747 26.7855 22.0519 26.7357 21.8386 26.6376L15.8848 23.8984V27.6523C15.8848 28.5707 16.6251 29.3474 18.0852 29.9607C19.3579 30.4953 20.9262 30.7897 22.501 30.7897C24.0758 30.7897 25.644 30.4953 26.9168 29.9607C28.3769 29.3474 29.1172 28.5707 29.1172 27.6523V23.8984L23.1634 26.6376C22.9501 26.7357 22.7273 26.7855 22.501 26.7855Z" fill="#FEFEFE"/>
</g>
<defs>
<clipPath id="clip0_2153:1623">
<rect width="22.5" height="22.5" fill="white" transform="translate(11.25 11.25)"/>
</clipPath>
</defs>
</svg>
